<?xml version="1.0" encoding="UTF-8" standalone="no"?>
<!-- Created with Inkscape (http://www.inkscape.org/) -->

<svg
   xmlns:dc="http://purl.org/dc/elements/1.1/"
   xmlns:cc="http://creativecommons.org/ns#"
   xmlns:rdf="http://www.w3.org/1999/02/22-rdf-syntax-ns#"
   xmlns:svg="http://www.w3.org/2000/svg"
   xmlns="http://www.w3.org/2000/svg"
   xmlns:sodipodi="http://sodipodi.sourceforge.net/DTD/sodipodi-0.dtd"
   xmlns:inkscape="http://www.inkscape.org/namespaces/inkscape"
   width="210mm"
   height="210mm"
   id="svg2880"
   version="1.1"
   inkscape:version="0.91 r13725"
   sodipodi:docname="GNU Social Image Logo black.svg"
   inkscape:export-filename="/home/robmyers/Desktop/social_logo_competition/gnu-social-logo.png"
   inkscape:export-xdpi="90"
   inkscape:export-ydpi="90">
  <title
     id="title4176">GNU Social IMage Logo</title>
  <defs
     id="defs2882" />
  <sodipodi:namedview
     id="base"
     pagecolor="#ffffff"
     bordercolor="#666666"
     borderopacity="1.0"
     inkscape:pageopacity="0.0"
     inkscape:pageshadow="2"
     inkscape:zoom="0.80774791"
     inkscape:cx="500.01451"
     inkscape:cy="312.78225"
     inkscape:document-units="px"
     inkscape:current-layer="layer1"
     showgrid="false"
     inkscape:window-width="1920"
     inkscape:window-height="1017"
     inkscape:window-x="-8"
     inkscape:window-y="-8"
     inkscape:window-maximized="1"
     units="mm"
     width="210mm" />
  <metadata
     id="metadata2885">
    <rdf:RDF>
      <cc:Work
         rdf:about="">
        <dc:format>image/svg+xml</dc:format>
        <dc:type
           rdf:resource="http://purl.org/dc/dcmitype/StillImage" />
        <dc:title>GNU Social IMage Logo</dc:title>
      </cc:Work>
    </rdf:RDF>
  </metadata>
  <g
     inkscape:label="Layer 1"
     inkscape:groupmode="layer"
     id="layer1"
     transform="translate(-119.19595,359.77011)">
    <g
       id="g4644"
       transform="matrix(7.4177891,0,0,7.4177891,-41.453308,-6325.1811)">
      <path
         style="fill:#a22430;fill-opacity:1;stroke:none"
         d="m 96.925831,881.563 c -3.735488,21.79036 -38.392563,21.90151 -38.392563,21.90151 0,0 21.203396,-6.56966 19.750703,-22.34174 -1.327052,-14.408 18.64186,0.44023 18.64186,0.44023 z"
         id="path4639"
         inkscape:connector-curvature="0"
         sodipodi:nodetypes="ccsc" />
      <rect
         ry="12.913471"
         y="805.25439"
         x="27.052763"
         height="77.451447"
         width="89.521233"
         id="rect3328"
         style="fill:#a22430;fill-opacity:1;stroke:none" />
      <path
         sodipodi:nodetypes="ccssssccsssccc"
         inkscape:connector-curvature="0"
         id="path4512"
         d="m 75.035672,851.19107 18.049506,0 c 0,0 0,-8.6579 0,0 0,8.65789 -3.668599,22.15834 -20.837642,21.27788 -17.169046,-0.88046 -20.984391,-14.38091 -21.131135,-23.47904 -0.146742,-9.09813 2.647404,-20.32513 22.892066,-19.81044 17.315785,0.44023 18.929973,16.28858 18.929973,16.28858 l -8.364408,-0.14674 c 0,0 -1.907672,-8.6579 -12.03301,-8.21766 -10.125331,0.44023 -11.446027,2.20115 -11.446027,12.91347 0,10.71231 4.695277,14.39422 11.886261,14.67439 11.299291,0.44023 10.272082,-5.86976 10.272082,-5.86976 l -5.282787,0.29349 z"
         style="fill:#ffffff;fill-opacity:1;stroke:none" />
      <path
         sodipodi:nodetypes="zsscsssz"
         inkscape:connector-curvature="0"
         id="path4516"
         d="m 84.147497,815.7524 c 1.37154,-1.22326 7.263833,5.94313 7.410571,8.73126 0.215959,4.10316 0.324743,11.56015 -11.886259,11.44603 -7.850803,-0.0734 -8.217663,-5.42952 -8.217663,-5.42952 0,0 -0.220117,-4.62244 4.035458,-4.62244 4.25557,0 2.858324,3.00825 6.236624,3.00825 5.062667,0 4.273427,-2.05348 4.402315,-4.69581 0.293494,-6.0165 -3.352577,-7.21451 -1.981046,-8.43777 z"
         style="fill:#ffffff;fill-opacity:1;stroke:none" />
      <path
         style="fill:#ffffff;fill-opacity:1;stroke:none"
         d="m 59.19991,815.7524 c -1.371534,-1.22326 -7.410569,4.62243 -7.410569,8.73126 0,4.10883 -0.324741,11.56015 11.886261,11.44603 7.850803,-0.0734 8.217663,-5.42952 8.217663,-5.42952 0,0 0.220117,-4.62244 -4.035458,-4.62244 -4.255574,0 -2.858321,3.00825 -6.236621,3.00825 -5.062668,0 -4.273428,-2.05348 -4.402318,-4.69581 -0.293491,-6.0165 3.352577,-7.21451 1.981042,-8.43777 z"
         id="path4611"
         inkscape:connector-curvature="0"
         sodipodi:nodetypes="zsscsssz" />
    </g>
    <path
       style="color:#000000;clip-rule:nonzero;display:inline;overflow:visible;visibility:visible;opacity:1;isolation:auto;mix-blend-mode:normal;color-interpolation:sRGB;color-interpolation-filters:linearRGB;solid-color:#000000;solid-opacity:1;fill:#000000;fill-opacity:1;fill-rule:evenodd;stroke:#000000;stroke-width:2.44135571;stroke-linecap:butt;stroke-linejoin:miter;stroke-miterlimit:4;stroke-dasharray:none;stroke-dashoffset:0;stroke-opacity:1;color-rendering:auto;image-rendering:auto;shape-rendering:auto;text-rendering:auto;enable-background:accumulate"
       d="m 289.30521,731.11892 c 36.70191,-15.0419 68.09229,-35.11052 90.66878,-57.96667 24.75714,-25.06383 38.24312,-51.88879 40.17622,-79.9145 l 0.74334,-10.77689 -149.66934,-0.41718 C 130.7012,581.65199 121.06309,581.48809 113.50778,579.36165 82.231904,570.55908 58.4101,549.79261 47.572955,521.8835 40.168009,502.81339 40.464346,512.27123 40.474546,295.33173 40.480796,162.40853 40.915052,93.761221 41.783681,88.383467 46.760526,57.571408 66.215087,31.780266 94.968835,17.875276 115.8715,7.766984 93.122989,8.5318205 372.87088,8.5318205 c 280.69441,0 255.28292,-0.903593 277.31425,9.8608585 19.97106,9.757806 34.6882,24.679162 44.00102,44.611582 10.00403,21.411813 9.23341,2.090211 9.23341,231.507879 l 0,204.27165 -2.77931,10.52308 c -9.16613,34.70504 -34.80442,60.49853 -69.02527,69.44311 -8.41722,2.20008 -14.87577,2.69043 -43.02085,3.26625 -25.26584,0.51693 -33.11677,1.04358 -33.11677,2.22156 0,3.09242 -6.61633,21.23396 -10.82482,29.68093 -25.27638,50.73291 -78.72286,86.29165 -160.78971,106.97581 -26.97006,6.79755 -60.97623,11.87723 -95.79563,14.30948 l -10.52309,0.73508 11.7611,-4.82017 z M 423.62756,503.77086 c 54.3053,-12.42884 88.42447,-48.49422 101.34215,-107.1229 2.68698,-12.19523 5.72925,-36.29558 5.74322,-45.49687 l 0.004,-2.78552 -67.47154,0 c -37.10935,0 -67.47155,0.27704 -67.47155,0.61566 0,0.33861 4.83641,13.7461 10.74759,29.79441 l 10.74758,29.17876 15.56013,-0.75604 c 8.55806,-0.41583 17.45314,-1.05062 19.76681,-1.41064 l 4.2067,-0.65461 -0.7491,6.32499 c -2.03389,17.17292 -15.72098,29.08609 -39.44617,34.33373 -12.64635,2.79718 -43.96142,2.70202 -57.35484,-0.17428 -24.66425,-5.29677 -43.63459,-19.56187 -53.5973,-40.30352 -9.96353,-20.74333 -13.42243,-43.77455 -12.1783,-81.08965 0.88943,-26.67697 2.82422,-39.45026 7.54116,-49.78613 8.56006,-18.75696 23.48166,-25.70612 62.13815,-28.93842 28.42309,-2.37664 43.52801,-0.20399 62.22382,8.95008 16.92894,8.28897 31.14127,24.38393 38.17011,43.22631 1.81454,4.86426 3.30647,6.93215 5.43149,7.52829 1.61138,0.45206 15.86854,0.87745 31.68257,0.94532 l 28.75278,0.1234 -0.70302,-4.02353 c -4.5854,-26.24349 -18.21699,-54.95732 -34.45187,-72.57009 l -5.01143,-5.43676 3.09147,-1.9359 c 6.64751,-4.16273 16.39757,-15.45256 20.00788,-23.16762 4.90352,-10.47856 7.60123,-26.50376 7.00263,-41.59766 -0.43937,-11.0788 -0.84794,-12.68776 -5.71719,-22.51432 -8.48827,-17.13003 -24.70239,-37.30998 -37.32385,-46.452916 -6.8106,-4.933578 -12.66166,-5.279256 -14.6721,-0.866824 -1.21104,2.657911 -0.54068,4.653811 5.35593,15.94662 9.09571,17.41954 10.75735,25.1965 10.26284,48.03312 -0.34864,16.10023 -0.69378,18.64126 -2.95072,21.72341 -3.96166,5.41013 -10.57359,8.02835 -22.08862,8.74675 -13.68002,0.85346 -17.29721,-0.53584 -26.52817,-10.18912 -8.14605,-8.51868 -15.13996,-11.78034 -25.26041,-11.78034 -11.81753,0 -23.4335,6.38892 -26.92013,14.8064 -1.96262,4.73816 -3.03062,4.73816 -4.99324,0 -3.48663,-8.41748 -15.1026,-14.8064 -26.92013,-14.8064 -9.97695,0 -16.76471,3.17177 -25.13336,11.74426 -4.47391,4.58289 -9.68509,8.6424 -12.13005,9.44931 -6.08123,2.00698 -23.60459,0.71309 -29.41087,-2.17166 -8.67977,-4.31238 -9.70599,-7.02183 -10.16789,-26.84528 -0.57226,-24.55925 1.78025,-34.8425 11.80482,-51.60111 5.02552,-8.401435 5.42508,-14.296059 1.10254,-16.265541 -4.59681,-2.094446 -14.76506,3.218008 -25.44726,13.295069 -15.49167,14.614052 -25.97306,31.952622 -28.71057,47.493732 -1.76872,10.04116 0.27874,34.62241 3.8346,46.03708 3.45099,11.07808 11.1333,22.2605 19.32072,28.12338 l 6.65675,4.7668 -3.16804,2.96076 c -4.54699,4.2495 -15.79145,21.528 -19.52083,29.9962 -13.46666,30.57836 -16.37266,76.86243 -7.55893,120.39192 13.21753,65.27912 52.03394,108.13042 111.56877,123.16613 7.63475,1.92817 17.9678,4.05218 22.96234,4.72001 13.46914,1.80097 55.49297,0.73284 66.0277,-1.67825 z"
       id="path4180"
       inkscape:connector-curvature="0"
       transform="translate(119.19595,-359.77011)" />
  </g>
</svg>
